<?xml version="1.0" encoding="utf-8"?>
<!-- Generator: Adobe Illustrator 22.0.1, SVG Export Plug-In . SVG Version: 6.00 Build 0)  -->
<svg version="1.1" id="Calque_1" xmlns="http://www.w3.org/2000/svg" xmlns:xlink="http://www.w3.org/1999/xlink" x="0px" y="0px"
	 viewBox="0 0 259 63.2" style="enable-background:new 0 0 259 63.2;" xml:space="preserve">
<style type="text/css">
	.st0{enable-background:new    ;}
	.st1{fill:#ED1E79;}
	.st2{fill:none;stroke:#ED1E79;stroke-miterlimit:10;}
</style>
<g class="st0">
	<path class="st1" d="M43.7,27.7c0-3,1.1-6,3.1-9.2c2.1-3.2,4.6-5.9,7.7-8.3s6.5-4.3,10.2-5.9c3.7-1.5,7.3-2.3,10.6-2.3
		c1.9,0,3.6,0.4,5.3,1.2c1.6,0.8,2.4,2,2.4,3.6s-0.9,3.3-2.7,5.1c-1.8,1.8-4,3.4-6.5,4.7c-2.5,1.3-4.7,1.9-6.6,1.9
		c-0.9,0-1.8-0.2-2.7-0.7c-0.9-0.5-1.4-1.2-1.4-2c0-0.5,0.4-0.9,1.2-1.2c2.7-1.1,4.8-2.1,6.1-3.2c0.3-0.3,0.5-0.5,0.6-0.5
		s0.2,0.1,0.2,0.4c0,0.4-0.5,1-1.6,1.6c-0.8,0.6-1.2,0.9-1.2,1s0,0.1,0,0.1c0.6,0,2.6-1.2,5.9-3.7c3.3-2.5,4.9-4,4.9-4.8
		c0-0.4-0.4-0.7-1.3-0.7c-3.1,0-6.2,0.7-9.4,2.2c-3.2,1.5-6,3.3-8.4,5.5c-2.4,2.2-4.7,4.5-6.6,7c-2,2.4-3.5,4.7-4.6,6.8
		c-1.1,2.1-1.6,3.7-1.6,4.9c0,0.7,0.3,1.1,1,1.1c0.6,0,1.7-0.3,3.5-0.8c1.7-0.5,4.2-1.5,7.5-3.1c3.3-1.5,6.4-3.4,9.5-5.5
		c0.2-0.2,0.4-0.3,0.5-0.3c0.1,0,0.1,0.1,0.1,0.2s-0.3,0.7-0.8,1.6c-0.6,1-1.4,2.1-2.5,3.5c-1.1,1.4-2.4,2.7-3.9,4
		c-1.4,1.3-3.2,2.4-5.2,3.3c-2,0.9-3.9,1.4-5.6,1.4c-1.7,0-3.1-0.3-4-0.9c-1-0.6-1.7-1.4-2.1-2.3c-0.9-1.8-1.4-3.4-1.5-4.8
		L43.7,27.7z"/>
	<path class="st1" d="M81.4,26.9c0.9,0,2.3-0.5,4.2-1.6c1.9-1.1,3.6-2.2,5-3.3l2.2-1.7c0.3,0.2,0.4,0.5,0.4,0.8
		c0,0.3-0.1,0.6-0.4,0.9c-5.3,4.9-9.3,7.3-12,7.3c-0.2,0-0.5,0-0.9-0.1c-3.6,4.2-6.7,6.3-9.3,6.3c-1.7-0.3-2.8-0.9-3.3-1.8
		c-0.3-0.5-0.4-1.1-0.4-1.8c0-2.1,1.2-4.6,3.6-7.6s5.5-5.1,9.2-6.5c0.3,0,0.6,0.1,0.7,0.2c0.2,0.1,0.3,0.2,0.4,0.2
		c0.1,0,0.3,0,0.5-0.2c0.2-0.1,0.5-0.2,0.8-0.2c0.4,0,0.7,0.2,1.1,0.6c0.5,0.4,0.8,0.9,0.8,1.5C84.2,21.8,83.2,24.1,81.4,26.9z
		 M71,32.5c1,0,2.3-0.7,3.8-2c1.5-1.3,2.3-2.3,2.4-2.8c-0.4-0.3-0.8-0.9-1.2-1.8c-0.4-0.8-0.7-1.3-0.7-1.3c-1,0.9-1.9,2-2.6,3.2
		c-1.2,2-1.8,3.5-1.8,4.2C70.7,32.3,70.8,32.5,71,32.5z M81.3,20.7c-0.3,0-1,0.5-2,1.5c-1,1-1.5,1.7-1.5,2.1c0,0.1,0.1,0.3,0.3,0.6
		c0.2,0.3,0.3,0.4,0.4,0.4c0.5,0,1.2-0.7,1.8-2c0.7-1.3,1-2.1,1-2.3S81.4,20.7,81.3,20.7z"/>
	<path class="st1" d="M88.6,35.4c-2.5,0-3.7-1.5-3.7-4.5c0-1.9,0.8-3.9,2.5-6c1.6-2.1,3.6-3.9,5.8-5.2c2.2-1.4,4.2-2,6-2
		c0.8,0,1.5,0.3,2.1,0.9c0.7,0.6,1,1.2,1,1.8c0,1.1-0.8,2.2-2.3,3.6c-1.5,1.3-3.1,2.4-4.7,3.2c-1.6,0.8-2.7,1.2-3.3,1.2
		c-0.5,0-0.9-0.2-1.2-0.7c-0.1-0.1-0.3-0.1-0.5-0.1c-0.2,0-0.6,0.4-1.1,1.3c-0.5,0.8-0.8,1.5-0.8,2.1c0,0.5,0.2,0.9,0.6,1
		c2.4,0,5.1-0.7,7.9-2.1s6.8-3.9,11.8-7.5c0.4-0.3,0.9-0.6,1.6-1.2c0.7-0.5,1.1-0.8,1.3-0.9c0.3,0.2,0.4,0.5,0.4,0.8
		c0,0.3-0.1,0.6-0.4,0.9c-1.6,1.6-3.7,3.4-6.2,5.4c-2.5,2-5.5,3.9-8.8,5.6C93.4,34.5,90.7,35.4,88.6,35.4z M98.8,20.1
		c-0.8,0-2.2,0.9-4.2,2.6c-2,1.7-3,2.8-3,3.1c0,0.1,0,0.1,0.1,0.1c0.7,0,2.1-0.8,4.2-2.4c2.1-1.6,3.1-2.6,3.1-3.2
		C99.1,20.1,99,20.1,98.8,20.1z"/>
	<path class="st1" d="M114.1,30.3c4.8-2.6,10-6,15.7-10.2c0.3,0.2,0.4,0.5,0.4,0.8c0,0.3-0.2,0.6-0.5,0.9c-0.3,0.3-0.8,0.7-1.4,1.2
		s-1.7,1.5-3.4,2.9c-1.7,1.4-3.2,2.7-4.7,3.8c-3.8,3-6.6,4.8-8.4,5.4c-0.6,0.2-1.2,0.2-1.9,0.2c-1.1,0-1.6-0.8-1.6-2.5
		c0-0.4,0.2-0.9,0.5-1.6c0.3-0.7,0.5-1.1,0.5-1.2c0-0.1,0.1-0.2,0.1-0.3c0-0.1,0.1-0.1,0.1-0.2c0,0,0-0.1,0-0.2
		c0-0.1-0.1-0.1-0.3-0.1c-0.2,0-0.7,0.4-1.6,1.3c-0.9,0.8-1.6,1.5-2.2,2c-0.6,0.5-1.3,1-2,1.4c-0.8,0.4-1.4,0.7-1.8,0.7
		c-1.3,0-1.9-0.6-1.9-1.8c0-0.7,0.2-1.6,0.7-2.6c1.1-2.4,2.8-4.7,5-7.1c2.2-2.4,3.8-3.6,4.8-3.6c0.4,0,0.7,0.1,1,0.4
		c0.3,0.3,0.4,0.5,0.4,0.9c0,0.3-0.3,0.8-1,1.4c-0.6,0.6-1.4,1.5-2.4,2.5c-1,1-1.7,1.8-2.1,2.5c-0.4,0.7-0.6,1.1-0.6,1.3
		s0.1,0.3,0.4,0.3c0.3,0,0.7-0.2,1.4-0.6c1.8-1.2,3.9-2.8,6.3-4.6c2.4-1.8,3.9-3.2,4.5-4c0.2-0.6,0.6-0.9,1.4-0.9
		c1.5,0,2.3,0.3,2.3,0.8c0,0.2-0.8,1.1-2.3,2.5c-4.5,4.3-6.8,7-6.8,8c0,0.2,0.1,0.2,0.2,0.2S113.7,30.5,114.1,30.3z"/>
	<path class="st1" d="M122.5,25.6c1.8-1.2,3.6-2.5,5.5-3.9c-1-0.7-1.7-1.4-2-2.1c-0.1-0.2-0.1-0.4-0.1-0.5c0-0.6,0.2-1.1,0.6-1.3
		c0.4-0.2,1.1-0.3,2-0.3c0.4,0,1.4,0.4,3.1,1.3c1.7,0.9,2.8,1.3,3.3,1.3c0.5,0,1.1-0.1,1.9-0.4c0.8-0.3,1.5-0.4,2-0.4
		s0.9,0.1,1.1,0.3c0.8,1.1,1.2,1.7,1.2,1.9s-0.1,0.4-0.3,0.6c-0.2,0.1-0.9,0.6-2,1.4c-1.1,0.8-2.2,1.6-3.2,2.4c-1.1,0.8-2,1.7-3,2.7
		c-0.9,1-1.4,1.8-1.4,2.4c0,0.1,0.1,0.1,0.2,0.1c1.7,0,7.6-3.5,17.5-10.5c0.2,0,0.3,0.2,0.3,0.6c0,0.4-1.3,1.8-3.8,4.1
		c-2.5,2.4-5.4,4.7-8.6,6.9c-3.2,2.3-5.5,3.4-6.9,3.4c-2.2,0-3.4-1.1-3.4-3.4c0-1.2,0.4-2.4,1.2-3.5c0.8-1.1,2.5-2.7,5.2-4.6
		c-0.5,0-1.3-0.1-2.2-0.4c-0.9-0.3-1.5-0.6-1.8-1c-0.8,0.7-2.3,2-4.3,3.7c-0.5,0.4-1.1,0.5-1.9,0.5c-0.8,0-1.2-0.1-1.2-0.4
		S122,26,122.5,25.6z"/>
	<path class="st1" d="M166.1,27.3c0-0.1,0-0.2,0-0.3c0-0.1,0-0.1-0.1-0.1s-0.1,0.1-0.3,0.2c-0.1,0.2-0.3,0.4-0.6,0.7
		c-0.2,0.3-0.7,0.8-1.4,1.6c-0.7,0.8-1.5,1.6-2.2,2.3c-2.1,2-4.2,3.5-6.2,4.6c-0.5,0.3-1.1,0.4-1.7,0.4c-2.3,0-3.5-1.8-3.5-5.3
		c0-3.1,1.5-6.9,4.5-11.3c1.4-2,3.1-4.1,5.1-6c2-2,4.1-3.7,6.3-5.3s4.6-2.8,7.2-3.7c2.6-0.9,5.1-1.4,7.6-1.4c0.4,0,1,0.1,1.7,0.4
		c1.2,0.5,1.8,1.1,1.8,1.6c0,0.3-0.2,0.5-0.6,0.5c-0.2,0-0.2,0.1-0.2,0.2s0.2,0.4,0.7,0.7c0.5,0.4,0.7,0.7,0.7,1.1s-0.1,0.6-0.3,0.9
		c-1.6,1.8-2.9,3.2-3.8,4.4s-1.7,2-2.2,2.6c-0.5,0.6-1.1,1.2-1.7,2c-0.6,0.8-1.3,1.7-2.1,2.8c-0.8,1.1-1.5,2.3-2.1,3.4
		c-1.5,2.7-2.2,5.2-2.2,7.5c0,2.3,0.2,4.4,0.6,6.4c0.4,2,0.8,3.3,1.3,3.7c0,0.1-0.1,0.1-0.3,0.1c-1.5,0-2.7-0.6-3.8-1.7
		c-1.9-2.1-2.9-5-2.9-8.4C165.2,30.6,165.5,29.1,166.1,27.3z M172.4,16.5l9.2-9.3c0.2-0.2,0.3-0.4,0.3-0.5s-0.1-0.1-0.2-0.1
		c-2.5,0.4-5.1,1.4-7.8,3s-5.2,3.5-7.5,5.7c-2.2,2.1-4.3,4.3-6.2,6.6c-1.9,2.2-3.4,4.3-4.4,6s-1.6,3.1-1.6,3.8
		c0,0.1,0.1,0.2,0.3,0.2s0.5-0.1,1-0.4c0.5-0.2,2.3-1.6,5.3-4.2C163.9,24.8,167.7,21.1,172.4,16.5z"/>
	<path class="st1" d="M196.4,12.4l2.4,0c3.2,0,5.5,0.4,6.9,1.3c0.7,0.2,1.1,0.5,1.1,0.9c0,0.3-0.3,0.4-0.9,0.5
		c-0.6,0.1-2.8,0.3-6.5,0.7c-3.7,0.4-6.2,0.6-7.6,0.7c-0.6,0-2,1.1-4.2,3.2c-2.2,2.1-4.3,4.4-6.3,6.9c-2,2.5-3,4.2-3,5.2
		c0,0.2,0.1,0.3,0.2,0.4c0.2,0.1,0.4,0.2,0.6,0.2c0.2,0,0.6-0.1,1.1-0.3c6.1-3.6,12-7.5,17.7-11.8c0.3,0.2,0.4,0.5,0.4,0.8
		c0,0.3-0.2,0.6-0.5,0.9c-0.3,0.3-0.8,0.7-1.4,1.3c-0.6,0.6-1.8,1.6-3.5,3.1c-1.7,1.5-3.3,2.8-4.8,4c-4,3.3-6.8,5.2-8.4,5.7
		c-0.6,0.2-1.3,0.2-2,0.2s-1.5-0.4-2.2-1.2s-1-1.9-1-3.3c0-1.4,0.9-3.4,2.7-6c1.8-2.6,4.2-5.2,7.3-8c0.3-0.2,0.4-0.4,0.4-0.6
		c0-0.2-0.3-0.3-1-0.3l-3,0.1c-4.3,0-6.4-0.5-6.6-1.4c-1-0.2-1.5-0.5-1.5-0.9c0-0.1,0.1-0.2,0.2-0.2c0.1,0,0.2,0,0.3,0
		c0.1,0,0.3,0,0.5-0.1c0.2,0,2-0.3,5.3-0.8c3.3-0.5,7.1-0.9,11.3-1.2l3.3-4.4c0.2-0.4,0.9-0.6,2-0.6s1.7,0.2,1.7,0.7
		c0,0.2-0.1,0.4-0.4,0.9l-1.2,1.7c-0.2,0.5-0.3,0.9-0.3,1.2C195.8,12.3,196,12.4,196.4,12.4z"/>
	<path class="st1" d="M202.6,26.9c0.9,0,2.3-0.5,4.2-1.6c1.9-1.1,3.6-2.2,5-3.3l2.2-1.7c0.3,0.2,0.4,0.5,0.4,0.8
		c0,0.3-0.1,0.6-0.4,0.9c-5.3,4.9-9.3,7.3-12,7.3c-0.2,0-0.5,0-0.9-0.1c-3.6,4.2-6.7,6.3-9.3,6.3c-1.7-0.3-2.8-0.9-3.3-1.8
		c-0.3-0.5-0.4-1.1-0.4-1.8c0-2.1,1.2-4.6,3.6-7.6c2.4-2.9,5.5-5.1,9.2-6.5c0.3,0,0.6,0.1,0.7,0.2c0.2,0.1,0.3,0.2,0.4,0.2
		c0.1,0,0.3,0,0.5-0.2c0.2-0.1,0.5-0.2,0.8-0.2c0.4,0,0.7,0.2,1.1,0.6c0.5,0.4,0.8,0.9,0.8,1.5C205.4,21.8,204.4,24.1,202.6,26.9z
		 M192.2,32.5c1,0,2.3-0.7,3.8-2c1.5-1.3,2.3-2.3,2.4-2.8c-0.4-0.3-0.8-0.9-1.2-1.8c-0.4-0.8-0.7-1.3-0.7-1.3c-1,0.9-1.9,2-2.6,3.2
		c-1.2,2-1.8,3.5-1.8,4.2C191.9,32.3,192,32.5,192.2,32.5z M202.5,20.7c-0.3,0-1,0.5-2,1.5c-1,1-1.5,1.7-1.5,2.1
		c0,0.1,0.1,0.3,0.3,0.6c0.2,0.3,0.3,0.4,0.4,0.4c0.5,0,1.2-0.7,1.8-2c0.7-1.3,1-2.1,1-2.3S202.6,20.7,202.5,20.7z"/>
	<path class="st1" d="M217.8,30.3c4.8-2.6,10-6,15.7-10.2c0.3,0.2,0.4,0.5,0.4,0.8c0,0.3-0.2,0.6-0.5,0.9c-0.3,0.3-0.8,0.7-1.4,1.2
		c-0.6,0.5-1.7,1.5-3.4,2.9c-1.7,1.4-3.2,2.7-4.7,3.8c-3.8,3-6.6,4.8-8.4,5.4c-0.6,0.2-1.2,0.2-1.9,0.2c-1.1,0-1.6-0.8-1.6-2.5
		c0-0.4,0.2-0.9,0.5-1.6c0.3-0.7,0.5-1.1,0.5-1.2c0-0.1,0.1-0.2,0.1-0.3c0-0.1,0.1-0.1,0.1-0.2s0-0.1,0-0.2c0-0.1-0.1-0.1-0.3-0.1
		c-0.2,0-0.7,0.4-1.6,1.3c-0.9,0.8-1.6,1.5-2.2,2c-0.6,0.5-1.3,1-2,1.4c-0.8,0.4-1.4,0.7-1.8,0.7c-1.3,0-1.9-0.6-1.9-1.8
		c0-0.7,0.2-1.6,0.7-2.6c1.1-2.4,2.8-4.7,5-7.1c2.2-2.4,3.8-3.6,4.8-3.6c0.4,0,0.7,0.1,1,0.4c0.3,0.3,0.4,0.5,0.4,0.9
		c0,0.3-0.3,0.8-1,1.4c-0.6,0.6-1.4,1.5-2.4,2.5c-1,1-1.7,1.8-2.1,2.5s-0.6,1.1-0.6,1.3s0.1,0.3,0.4,0.3c0.3,0,0.7-0.2,1.4-0.6
		c1.8-1.2,3.9-2.8,6.3-4.6c2.4-1.8,3.9-3.2,4.5-4c0.2-0.6,0.6-0.9,1.4-0.9c1.5,0,2.3,0.3,2.3,0.8c0,0.2-0.8,1.1-2.3,2.5
		c-4.5,4.3-6.8,7-6.8,8c0,0.2,0.1,0.2,0.2,0.2C217.2,30.6,217.5,30.5,217.8,30.3z"/>
	<path class="st1" d="M246.6,12.4l2.4,0c3.2,0,5.5,0.4,6.9,1.3c0.7,0.2,1.1,0.5,1.1,0.9c0,0.3-0.3,0.4-0.9,0.5
		c-0.6,0.1-2.8,0.3-6.5,0.7c-3.7,0.4-6.2,0.6-7.6,0.7c-0.6,0-2,1.1-4.2,3.2s-4.3,4.4-6.3,6.9c-2,2.5-3,4.2-3,5.2
		c0,0.2,0.1,0.3,0.2,0.4c0.2,0.1,0.4,0.2,0.6,0.2s0.6-0.1,1.1-0.3c6.1-3.6,12-7.5,17.7-11.8c0.3,0.2,0.4,0.5,0.4,0.8
		c0,0.3-0.2,0.6-0.5,0.9c-0.3,0.3-0.8,0.7-1.4,1.3c-0.6,0.6-1.8,1.6-3.5,3.1c-1.7,1.5-3.3,2.8-4.8,4c-4,3.3-6.8,5.2-8.4,5.7
		c-0.6,0.2-1.3,0.2-2,0.2s-1.5-0.4-2.2-1.2c-0.7-0.8-1-1.9-1-3.3c0-1.4,0.9-3.4,2.7-6c1.8-2.6,4.2-5.2,7.3-8
		c0.3-0.2,0.4-0.4,0.4-0.6c0-0.2-0.3-0.3-1-0.3l-3,0.1c-4.3,0-6.4-0.5-6.6-1.4c-1-0.2-1.5-0.5-1.5-0.9c0-0.1,0.1-0.2,0.2-0.2
		c0.1,0,0.2,0,0.3,0c0.1,0,0.3,0,0.5-0.1c0.2,0,2-0.3,5.3-0.8c3.3-0.5,7.1-0.9,11.3-1.2l3.3-4.4c0.2-0.4,0.9-0.6,2-0.6
		s1.7,0.2,1.7,0.7c0,0.2-0.1,0.4-0.4,0.9l-1.2,1.7c-0.2,0.5-0.3,0.9-0.3,1.2C245.9,12.3,246.1,12.4,246.6,12.4z"/>
</g>
<path class="st1" d="M37.8,36.7c0,0-20.1,3.4-28.5-0.2s-5.5-20,12.5-15.4C17,3.1,33.3,0,37,8.3C40.8,16.5,37.8,36.7,37.8,36.7z"/>
<g class="st0">
	<path class="st1" d="M7,56.9c0.4,0.3,1,0.4,1.8,0.4c0.7,0,1.4-0.3,1.9-0.8s0.8-1.2,0.8-2.2v-8.5c0-0.2-0.1-0.3-0.3-0.3H9.8
		c-0.2,0-0.3-0.1-0.3-0.3s0.1-0.3,0.3-0.3h3.9c0.2,0,0.3,0.1,0.3,0.3s-0.1,0.3-0.3,0.3h-1.3c-0.2,0-0.3,0.1-0.3,0.3v8.5
		c0,1.1-0.3,2-1,2.6c-0.6,0.6-1.5,0.9-2.5,0.9c-0.7,0-1.4-0.2-2-0.5c-0.6-0.3-1-0.7-1.4-1.2c0,0-0.1-0.1-0.1-0.2s0.1-0.1,0.2-0.2
		c0.1-0.1,0.3,0,0.4,0.1C6.1,56.3,6.5,56.7,7,56.9z"/>
	<path class="st1" d="M16.3,56.6c-0.9-0.9-1.3-2-1.3-3.4s0.4-2.5,1.3-3.4c0.9-0.9,2-1.3,3.4-1.3s2.5,0.4,3.4,1.3
		c0.9,0.9,1.3,2,1.3,3.4s-0.4,2.5-1.3,3.4c-0.9,0.9-2,1.3-3.4,1.3S17.2,57.4,16.3,56.6z M19.7,49c-1.2,0-2.2,0.4-3,1.1
		c-0.8,0.8-1.1,1.8-1.1,3c0,1.3,0.4,2.3,1.1,3s1.8,1.1,3,1.1s2.3-0.4,3-1.1c0.8-0.8,1.1-1.8,1.1-3c0-1.3-0.4-2.3-1.1-3
		C21.9,49.4,20.9,49,19.7,49z"/>
	<path class="st1" d="M25.8,48.7h1.9c0.2,0,0.3,0.1,0.3,0.3v5.3c0,1,0.3,1.8,0.8,2.3c0.6,0.5,1.3,0.8,2.3,0.8c1,0,1.9-0.4,2.8-1.2
		c0.4-0.4,0.7-0.8,1-1.2v-5.4c0-0.2-0.1-0.3-0.3-0.3h-1.3c-0.2,0-0.3-0.1-0.3-0.3c0-0.2,0.1-0.3,0.3-0.3h1.9c0.2,0,0.3,0.1,0.3,0.3
		v7.9c0,0.2,0.1,0.3,0.3,0.3h1.3c0.2,0,0.3,0.1,0.3,0.3c0,0.2-0.1,0.3-0.3,0.3h-1.9c-0.2,0-0.3-0.1-0.3-0.3v-1c0-0.1,0-0.2-0.1-0.3
		c-0.1,0-0.1,0-0.2,0.1c-1,1.1-2.2,1.6-3.4,1.6c-1.2,0-2.2-0.3-2.8-0.9c-0.7-0.6-1-1.5-1-2.7v-4.8c0-0.2-0.1-0.3-0.3-0.3h-1.3
		c-0.2,0-0.3-0.1-0.3-0.3C25.5,48.8,25.6,48.7,25.8,48.7z"/>
	<path class="st1" d="M46.3,56.4c0.2-0.1,0.4-0.3,0.5-0.4c0.1-0.1,0.2-0.1,0.3-0.1c0.1,0,0.1,0.1,0.2,0.2c0.1,0.1,0.1,0.2-0.1,0.3
		c-0.5,0.4-1,0.7-1.6,1c-0.6,0.3-1.4,0.4-2.3,0.4c-1.4,0-2.5-0.4-3.3-1.3s-1.2-2-1.2-3.4s0.4-2.5,1.2-3.4s1.9-1.3,3.3-1.3
		c1.3,0,2.4,0.4,3.3,1.2c0.8,0.8,1.3,1.7,1.3,2.9v0.3c0,0.4-0.2,0.5-0.6,0.5h-7.6c-0.2,0-0.3,0.1-0.3,0.3c0.1,1,0.5,1.9,1.1,2.6
		s1.6,1.1,2.8,1.1C44.5,57.3,45.5,57,46.3,56.4z M39.3,52.6c0,0.1,0.1,0.2,0.3,0.2h7.3c0.2,0,0.3-0.1,0.3-0.3c0-1-0.4-1.8-1.1-2.5
		c-0.8-0.7-1.7-1-2.8-1s-2.1,0.4-2.8,1.1C39.7,50.9,39.3,51.7,39.3,52.6z"/>
	<path class="st1" d="M49.6,57.4c0-0.1,0.1-0.2,0.2-0.4l7.1-7.5c0.1-0.1,0.1-0.1,0.1-0.2c0-0.1-0.1-0.1-0.3-0.1h-6.1
		c-0.2,0-0.3,0.1-0.3,0.3v1.7c0,0.2-0.1,0.3-0.3,0.3s-0.3-0.1-0.3-0.3v-2.2c0-0.2,0.1-0.3,0.3-0.3h7.8c0.2,0,0.3,0.1,0.3,0.3
		c0,0.1-0.1,0.2-0.2,0.4l-7.1,7.5c-0.1,0.1-0.1,0.1-0.1,0.2s0.1,0.1,0.3,0.1h6.1c0.2,0,0.3-0.1,0.3-0.3v-1.7c0-0.2,0.1-0.3,0.3-0.3
		c0.2,0,0.3,0.1,0.3,0.3v2.2c0,0.2-0.1,0.3-0.3,0.3h-7.8C49.7,57.7,49.6,57.6,49.6,57.4z"/>
	<path class="st1" d="M64.7,57.4c0-0.2,0.1-0.3,0.3-0.3h1.3c0.2,0,0.3-0.1,0.3-0.3v-11c0-0.2-0.1-0.3-0.3-0.3H65
		c-0.2,0-0.3-0.1-0.3-0.3s0.1-0.3,0.3-0.3h1.9c0.2,0,0.3,0.1,0.3,0.3v11.5c0,0.2,0.1,0.3,0.3,0.3h1.3c0.2,0,0.3,0.1,0.3,0.3
		c0,0.2-0.1,0.3-0.3,0.3H65C64.8,57.7,64.7,57.6,64.7,57.4z"/>
	<path class="st1" d="M74.6,48.5c1.1,0,1.9,0.3,2.6,0.9c0.7,0.6,1,1.3,1,2.1v5.4c0,0.2,0.1,0.3,0.3,0.3h1.3c0.2,0,0.3,0.1,0.3,0.3
		c0,0.2-0.1,0.3-0.3,0.3h-1.9c-0.2,0-0.3-0.1-0.3-0.3v-1c0-0.1,0-0.2-0.1-0.3c-0.1,0-0.1,0-0.2,0.1c-0.3,0.4-0.8,0.8-1.4,1.1
		c-0.6,0.3-1.3,0.5-1.9,0.5c-1.2,0-2.1-0.2-2.7-0.7s-0.9-1.1-0.9-1.9s0.4-1.4,1.1-2c0.7-0.5,1.6-0.8,2.8-0.8h3.2
		c0.2,0,0.3-0.1,0.3-0.3v-0.7c0-0.7-0.3-1.3-0.8-1.7c-0.6-0.5-1.3-0.7-2.1-0.7c-0.8,0-1.5,0.1-2,0.3c-0.5,0.2-0.9,0.4-1.1,0.5
		c-0.2,0.2-0.4,0.2-0.5,0s-0.1-0.3,0-0.4C72.1,48.9,73.2,48.5,74.6,48.5z M77.6,53.3c0-0.2-0.1-0.3-0.3-0.3h-3.2
		c-1.1,0-1.9,0.2-2.5,0.6c-0.5,0.4-0.8,0.9-0.8,1.6c0,0.6,0.2,1.1,0.7,1.5s1.2,0.6,2.2,0.6c1.2,0,2.3-0.6,3.3-1.8
		c0.2-0.2,0.3-0.4,0.5-0.7V53.3z"/>
	<path class="st1" d="M94.8,50.9c-1-1.3-2.3-1.9-3.7-1.9c-1,0-1.9,0.4-2.6,1.2c-0.7,0.8-1,1.8-1,3s0.4,2.2,1.1,3s1.7,1.1,2.9,1.1
		c1.2,0,2.2-0.3,3-0.9c0.2-0.1,0.4-0.3,0.5-0.4c0.1-0.1,0.2-0.1,0.3-0.1c0.1,0,0.1,0.1,0.2,0.2c0.1,0.1,0.1,0.1,0.1,0.2
		c0,0.1-0.1,0.1-0.2,0.2c-0.4,0.3-0.9,0.7-1.5,0.9c-0.6,0.3-1.4,0.4-2.3,0.4c-1.4,0-2.5-0.4-3.3-1.3c-0.8-0.9-1.2-2-1.2-3.4
		s0.4-2.5,1.2-3.4c0.8-0.9,1.8-1.3,3.1-1.3c1.2,0,2.3,0.4,3.3,1.3c0.2,0.2,0.3,0.1,0.3-0.2v-0.7c0-0.2,0.1-0.3,0.3-0.3
		s0.3,0.1,0.3,0.3v2.9c0,0.2-0.1,0.3-0.3,0.3s-0.3-0.1-0.3-0.3V50.9z"/>
	<path class="st1" d="M101.6,48.5c1.1,0,1.9,0.3,2.6,0.9c0.7,0.6,1,1.3,1,2.1v5.4c0,0.2,0.1,0.3,0.3,0.3h1.3c0.2,0,0.3,0.1,0.3,0.3
		c0,0.2-0.1,0.3-0.3,0.3h-1.9c-0.2,0-0.3-0.1-0.3-0.3v-1c0-0.1,0-0.2-0.1-0.3c-0.1,0-0.1,0-0.2,0.1c-0.3,0.4-0.8,0.8-1.4,1.1
		c-0.6,0.3-1.3,0.5-1.9,0.5c-1.2,0-2.1-0.2-2.7-0.7s-0.9-1.1-0.9-1.9s0.4-1.4,1.1-2c0.7-0.5,1.6-0.8,2.8-0.8h3.2
		c0.2,0,0.3-0.1,0.3-0.3v-0.7c0-0.7-0.3-1.3-0.8-1.7c-0.6-0.5-1.3-0.7-2.1-0.7c-0.8,0-1.5,0.1-2,0.3c-0.5,0.2-0.9,0.4-1.1,0.5
		c-0.2,0.2-0.4,0.2-0.5,0s-0.1-0.3,0-0.4C99,48.9,100.2,48.5,101.6,48.5z M104.6,53.3c0-0.2-0.1-0.3-0.3-0.3h-3.2
		c-1.1,0-1.9,0.2-2.5,0.6c-0.5,0.4-0.8,0.9-0.8,1.6c0,0.6,0.2,1.1,0.7,1.5s1.2,0.6,2.2,0.6c1.2,0,2.3-0.6,3.3-1.8
		c0.2-0.2,0.3-0.4,0.5-0.7V53.3z"/>
	<path class="st1" d="M115.5,49c-1.6,0-3,0.6-4,1.8c-0.3,0.3-0.6,0.7-0.8,1v5c0,0.2,0.1,0.3,0.3,0.3h1.5c0.2,0,0.3,0.1,0.3,0.3
		c0,0.2-0.1,0.3-0.3,0.3h-4c-0.2,0-0.3-0.1-0.3-0.3c0-0.2,0.1-0.3,0.3-0.3h1.3c0.2,0,0.3-0.1,0.3-0.3v-7.4c0-0.2-0.1-0.3-0.3-0.3
		h-1.3c-0.2,0-0.3-0.1-0.3-0.3c0-0.2,0.1-0.3,0.3-0.3h1.9c0.2,0,0.3,0.1,0.3,0.3v1.4c0,0.3,0.1,0.3,0.4,0c0.5-0.5,1.1-0.9,1.9-1.3
		c0.8-0.4,1.6-0.6,2.6-0.6h0.9c0.2,0,0.3,0.1,0.3,0.3V51c0,0.2-0.1,0.3-0.3,0.3s-0.3-0.1-0.3-0.3v-1.7c0-0.2-0.1-0.3-0.3-0.3H115.5z
		"/>
	<path class="st1" d="M124.5,56.4c0.1-0.1,0.2-0.1,0.3,0c0.1,0.1,0.2,0.2,0.2,0.2c0,0.1,0,0.1-0.1,0.2c-0.3,0.3-0.6,0.5-0.9,0.6
		c-0.8,0.3-1.3,0.4-1.4,0.4c-0.1,0-0.2,0-0.2,0c-0.9,0-1.6-0.3-2.1-0.8c-0.5-0.5-0.8-1.3-0.8-2.3v-5.2c0-0.2-0.1-0.3-0.3-0.3h-1.3
		c-0.2,0-0.3-0.1-0.3-0.3c0-0.2,0.1-0.3,0.3-0.3h1.3c0.2,0,0.3-0.1,0.3-0.3v-3.1c0-0.2,0.1-0.3,0.3-0.3c0.2,0,0.3,0.1,0.3,0.3v3.1
		c0,0.2,0.1,0.3,0.3,0.3h3.3c0.2,0,0.3,0.1,0.3,0.3c0,0.2-0.1,0.3-0.3,0.3h-3.3c-0.2,0-0.3,0.1-0.3,0.3v5.2c0,0.9,0.2,1.5,0.6,2
		c0.4,0.4,1,0.7,1.7,0.7C123.1,57.3,123.8,57,124.5,56.4z"/>
	<path class="st1" d="M133.6,56.4c0.2-0.1,0.4-0.3,0.5-0.4c0.1-0.1,0.2-0.1,0.3-0.1c0.1,0,0.1,0.1,0.2,0.2c0.1,0.1,0.1,0.2-0.1,0.3
		c-0.5,0.4-1,0.7-1.6,1c-0.6,0.3-1.4,0.4-2.3,0.4c-1.4,0-2.5-0.4-3.3-1.3c-0.8-0.9-1.2-2-1.2-3.4s0.4-2.5,1.2-3.4
		c0.8-0.9,1.9-1.3,3.3-1.3s2.4,0.4,3.3,1.2c0.8,0.8,1.3,1.7,1.3,2.9v0.3c0,0.4-0.2,0.5-0.6,0.5h-7.6c-0.2,0-0.3,0.1-0.3,0.3
		c0.1,1,0.5,1.9,1.1,2.6s1.6,1.1,2.8,1.1S132.8,57,133.6,56.4z M126.6,52.6c0,0.1,0.1,0.2,0.3,0.2h7.3c0.2,0,0.3-0.1,0.3-0.3
		c0-1-0.4-1.8-1.1-2.5c-0.8-0.7-1.7-1-2.8-1s-2.1,0.4-2.8,1.1S126.6,51.7,126.6,52.6z"/>
	<path class="st1" d="M149.3,49c-1.6,0-3,0.6-4,1.8c-0.3,0.3-0.6,0.7-0.8,1v5c0,0.2,0.1,0.3,0.3,0.3h1.5c0.2,0,0.3,0.1,0.3,0.3
		c0,0.2-0.1,0.3-0.3,0.3h-4c-0.2,0-0.3-0.1-0.3-0.3c0-0.2,0.1-0.3,0.3-0.3h1.3c0.2,0,0.3-0.1,0.3-0.3v-7.4c0-0.2-0.1-0.3-0.3-0.3
		h-1.3c-0.2,0-0.3-0.1-0.3-0.3c0-0.2,0.1-0.3,0.3-0.3h1.9c0.2,0,0.3,0.1,0.3,0.3v1.4c0,0.3,0.1,0.3,0.4,0c0.5-0.5,1.1-0.9,1.9-1.3
		c0.8-0.4,1.6-0.6,2.6-0.6h0.9c0.2,0,0.3,0.1,0.3,0.3V51c0,0.2-0.1,0.3-0.3,0.3c-0.2,0-0.3-0.1-0.3-0.3v-1.7c0-0.2-0.1-0.3-0.3-0.3
		H149.3z"/>
	<path class="st1" d="M153.4,56.6c-0.9-0.9-1.3-2-1.3-3.4s0.4-2.5,1.3-3.4c0.9-0.9,2-1.3,3.4-1.3c1.4,0,2.5,0.4,3.4,1.3
		s1.3,2,1.3,3.4s-0.4,2.5-1.3,3.4s-2,1.3-3.4,1.3C155.4,57.9,154.3,57.4,153.4,56.6z M156.8,49c-1.2,0-2.2,0.4-3,1.1
		c-0.8,0.8-1.1,1.8-1.1,3c0,1.3,0.4,2.3,1.1,3s1.8,1.1,3,1.1s2.3-0.4,3-1.1s1.1-1.8,1.1-3c0-1.3-0.4-2.3-1.1-3
		C159,49.4,158,49,156.8,49z"/>
	<path class="st1" d="M163.3,57.1h1.3c0.2,0,0.3-0.1,0.3-0.3v-7.4c0-0.2-0.1-0.3-0.3-0.3h-1.3c-0.2,0-0.3-0.1-0.3-0.3
		c0-0.2,0.1-0.3,0.3-0.3h1.9c0.2,0,0.3,0.1,0.3,0.3v1c0,0.3,0.1,0.4,0.3,0.2c1-1.1,2-1.6,3-1.6c0.7,0,1.4,0.2,1.9,0.6
		c0.6,0.4,0.9,1,1.2,1.7c0.3-0.4,0.6-0.8,0.9-1.2c0.8-0.8,1.7-1.2,2.6-1.2s1.7,0.3,2.3,0.9c0.6,0.6,0.9,1.5,0.9,2.7v4.8
		c0,0.2,0.1,0.3,0.3,0.3h1.3c0.2,0,0.3,0.1,0.3,0.3c0,0.2-0.1,0.3-0.3,0.3h-3.7c-0.2,0-0.3-0.1-0.3-0.3c0-0.2,0.1-0.3,0.3-0.3h1.2
		c0.2,0,0.3-0.1,0.3-0.3v-4.8c0-1-0.3-1.7-0.8-2.3c-0.5-0.5-1.2-0.8-1.9-0.8c-0.8,0-1.6,0.4-2.4,1.3c-0.4,0.4-0.7,0.8-0.9,1.3
		c0,0.3,0,0.4,0,0.5v4.8c0,0.2,0.1,0.3,0.3,0.3h1.2c0.2,0,0.3,0.1,0.3,0.3c0,0.2-0.1,0.3-0.3,0.3h-3.5c-0.2,0-0.3-0.1-0.3-0.3
		c0-0.2,0.1-0.3,0.3-0.3h1.2c0.2,0,0.3-0.1,0.3-0.3v-4.8c0-1-0.3-1.7-0.8-2.3c-0.5-0.5-1.2-0.8-1.9-0.8c-0.8,0-1.5,0.4-2.3,1.2
		c-0.3,0.3-0.6,0.8-0.9,1.2v5.4c0,0.2,0.1,0.3,0.3,0.3h1.2c0.2,0,0.3,0.1,0.3,0.3c0,0.2-0.1,0.3-0.3,0.3h-3.7
		c-0.2,0-0.3-0.1-0.3-0.3C163,57.2,163.1,57.1,163.3,57.1z"/>
	<path class="st1" d="M185.9,48.5c1.1,0,1.9,0.3,2.6,0.9c0.7,0.6,1,1.3,1,2.1v5.4c0,0.2,0.1,0.3,0.3,0.3h1.3c0.2,0,0.3,0.1,0.3,0.3
		c0,0.2-0.1,0.3-0.3,0.3h-1.9c-0.2,0-0.3-0.1-0.3-0.3v-1c0-0.1,0-0.2-0.1-0.3c-0.1,0-0.1,0-0.2,0.1c-0.3,0.4-0.8,0.8-1.4,1.1
		s-1.3,0.5-1.9,0.5c-1.2,0-2.1-0.2-2.7-0.7c-0.6-0.5-0.9-1.1-0.9-1.9s0.4-1.4,1.1-2c0.7-0.5,1.6-0.8,2.8-0.8h3.2
		c0.2,0,0.3-0.1,0.3-0.3v-0.7c0-0.7-0.3-1.3-0.8-1.7c-0.6-0.5-1.3-0.7-2.1-0.7s-1.5,0.1-2,0.3s-0.9,0.4-1.1,0.5
		c-0.2,0.2-0.4,0.2-0.5,0c-0.1-0.1-0.1-0.3,0-0.4C183.4,48.9,184.5,48.5,185.9,48.5z M188.9,53.3c0-0.2-0.1-0.3-0.3-0.3h-3.2
		c-1.1,0-1.9,0.2-2.5,0.6c-0.5,0.4-0.8,0.9-0.8,1.6c0,0.6,0.2,1.1,0.7,1.5c0.5,0.4,1.2,0.6,2.2,0.6c1.2,0,2.3-0.6,3.3-1.8
		c0.2-0.2,0.3-0.4,0.5-0.7V53.3z"/>
	<path class="st1" d="M192.8,57.1h1.3c0.2,0,0.3-0.1,0.3-0.3v-7.4c0-0.2-0.1-0.3-0.3-0.3h-1.3c-0.2,0-0.3-0.1-0.3-0.3
		c0-0.2,0.1-0.3,0.3-0.3h1.9c0.2,0,0.3,0.1,0.3,0.3v1c0,0.1,0,0.2,0.1,0.3c0.1,0,0.1,0,0.2-0.1c1-1.1,2.2-1.6,3.4-1.6
		c1.2,0,2.2,0.3,2.8,0.9s1,1.5,1,2.7v4.8c0,0.2,0.1,0.3,0.3,0.3h1.3c0.2,0,0.3,0.1,0.3,0.3c0,0.2-0.1,0.3-0.3,0.3h-3.7
		c-0.2,0-0.3-0.1-0.3-0.3c0-0.2,0.1-0.3,0.3-0.3h1.2c0.2,0,0.3-0.1,0.3-0.3v-4.8c0-1-0.3-1.8-0.8-2.3c-0.6-0.5-1.3-0.8-2.3-0.8
		s-1.9,0.4-2.8,1.2c-0.4,0.4-0.7,0.8-1,1.2v5.4c0,0.2,0.1,0.3,0.3,0.3h1.2c0.2,0,0.3,0.1,0.3,0.3c0,0.2-0.1,0.3-0.3,0.3h-3.7
		c-0.2,0-0.3-0.1-0.3-0.3C192.5,57.2,192.6,57.1,192.8,57.1z"/>
	<path class="st1" d="M211.6,56.4c0.1-0.1,0.2-0.1,0.3,0s0.2,0.2,0.2,0.2c0,0.1,0,0.1-0.1,0.2c-0.3,0.3-0.6,0.5-0.9,0.6
		c-0.8,0.3-1.3,0.4-1.4,0.4c-0.1,0-0.2,0-0.2,0c-0.9,0-1.6-0.3-2.1-0.8c-0.5-0.5-0.8-1.3-0.8-2.3v-5.2c0-0.2-0.1-0.3-0.3-0.3H205
		c-0.2,0-0.3-0.1-0.3-0.3c0-0.2,0.1-0.3,0.3-0.3h1.3c0.2,0,0.3-0.1,0.3-0.3v-3.1c0-0.2,0.1-0.3,0.3-0.3s0.3,0.1,0.3,0.3v3.1
		c0,0.2,0.1,0.3,0.3,0.3h3.3c0.2,0,0.3,0.1,0.3,0.3c0,0.2-0.1,0.3-0.3,0.3h-3.3c-0.2,0-0.3,0.1-0.3,0.3v5.2c0,0.9,0.2,1.5,0.6,2
		c0.4,0.4,1,0.7,1.7,0.7C210.3,57.3,211,57,211.6,56.4z"/>
	<path class="st1" d="M212.9,57.4c0-0.2,0.1-0.3,0.3-0.3h1.3c0.2,0,0.3-0.1,0.3-0.3v-7.4c0-0.2-0.1-0.3-0.3-0.3h-1.3
		c-0.2,0-0.3-0.1-0.3-0.3c0-0.2,0.1-0.3,0.3-0.3h1.9c0.2,0,0.3,0.1,0.3,0.3v7.9c0,0.2,0.1,0.3,0.3,0.3h1.3c0.2,0,0.3,0.1,0.3,0.3
		c0,0.2-0.1,0.3-0.3,0.3h-3.9C213,57.7,212.9,57.6,212.9,57.4z M214.5,47c-0.1-0.1-0.2-0.3-0.2-0.5c0-0.2,0.1-0.4,0.2-0.5
		s0.3-0.2,0.5-0.2c0.2,0,0.4,0.1,0.5,0.2c0.1,0.1,0.2,0.3,0.2,0.5c0,0.2-0.1,0.4-0.2,0.5c-0.1,0.1-0.3,0.2-0.5,0.2
		C214.8,47.2,214.6,47.2,214.5,47z"/>
	<path class="st1" d="M226.7,57.9c0-0.2-0.1-0.3-0.3-0.3h-2.6c-1.6,0-2.9-0.4-3.8-1.2c-0.9-0.8-1.4-1.9-1.4-3.3
		c0-1.4,0.4-2.6,1.2-3.4c0.8-0.8,1.8-1.3,3.1-1.3c0.8,0,1.5,0.2,2.1,0.5c0.6,0.3,1.1,0.7,1.4,1.1c0.1,0.1,0.2,0.1,0.2,0.1
		c0.1,0,0.1-0.1,0.1-0.3v-1c0-0.2,0.1-0.3,0.3-0.3s0.3,0.1,0.3,0.3v11.5c0,0.2,0.1,0.3,0.3,0.3h1.3c0.2,0,0.3,0.1,0.3,0.3
		s-0.1,0.3-0.3,0.3h-4c-0.2,0-0.3-0.1-0.3-0.3s0.1-0.3,0.3-0.3h1.5c0.2,0,0.3-0.1,0.3-0.3V57.9z M226.7,51.5c-0.2-0.4-0.6-0.8-1-1.2
		c-0.9-0.8-1.8-1.2-2.9-1.2s-1.9,0.4-2.6,1.1s-1,1.7-1,3s0.4,2.3,1.2,3s1.9,1,3.4,1h2.6c0.2,0,0.3-0.1,0.3-0.3V51.5z"/>
	<path class="st1" d="M229.8,48.7h1.9c0.2,0,0.3,0.1,0.3,0.3v5.3c0,1,0.3,1.8,0.8,2.3c0.6,0.5,1.3,0.8,2.3,0.8c1,0,1.9-0.4,2.8-1.2
		c0.4-0.4,0.7-0.8,1-1.2v-5.4c0-0.2-0.1-0.3-0.3-0.3h-1.3c-0.2,0-0.3-0.1-0.3-0.3c0-0.2,0.1-0.3,0.3-0.3h1.9c0.2,0,0.3,0.1,0.3,0.3
		v7.9c0,0.2,0.1,0.3,0.3,0.3h1.3c0.2,0,0.3,0.1,0.3,0.3c0,0.2-0.1,0.3-0.3,0.3h-1.9c-0.2,0-0.3-0.1-0.3-0.3v-1c0-0.1,0-0.2-0.1-0.3
		c-0.1,0-0.1,0-0.2,0.1c-1,1.1-2.2,1.6-3.4,1.6c-1.2,0-2.2-0.3-2.8-0.9s-1-1.5-1-2.7v-4.8c0-0.2-0.1-0.3-0.3-0.3h-1.3
		c-0.2,0-0.3-0.1-0.3-0.3C229.6,48.8,229.7,48.7,229.8,48.7z"/>
	<path class="st1" d="M250.3,56.4c0.2-0.1,0.4-0.3,0.5-0.4c0.1-0.1,0.2-0.1,0.3-0.1c0.1,0,0.1,0.1,0.2,0.2c0.1,0.1,0.1,0.2-0.1,0.3
		c-0.5,0.4-1,0.7-1.6,1c-0.6,0.3-1.4,0.4-2.3,0.4c-1.4,0-2.5-0.4-3.3-1.3c-0.8-0.9-1.2-2-1.2-3.4s0.4-2.5,1.2-3.4
		c0.8-0.9,1.9-1.3,3.3-1.3s2.4,0.4,3.3,1.2c0.8,0.8,1.3,1.7,1.3,2.9v0.3c0,0.4-0.2,0.5-0.6,0.5h-7.6c-0.2,0-0.3,0.1-0.3,0.3
		c0.1,1,0.5,1.9,1.1,2.6s1.6,1.1,2.8,1.1S249.5,57,250.3,56.4z M243.4,52.6c0,0.1,0.1,0.2,0.3,0.2h7.3c0.2,0,0.3-0.1,0.3-0.3
		c0-1-0.4-1.8-1.1-2.5c-0.8-0.7-1.7-1-2.8-1s-2.1,0.4-2.8,1.1S243.4,51.7,243.4,52.6z"/>
</g>
<g class="st0">
	<path class="st2" d="M7,56.9c0.4,0.3,1,0.4,1.8,0.4c0.7,0,1.4-0.3,1.9-0.8s0.8-1.2,0.8-2.2v-8.5c0-0.2-0.1-0.3-0.3-0.3H9.8
		c-0.2,0-0.3-0.1-0.3-0.3s0.1-0.3,0.3-0.3h3.9c0.2,0,0.3,0.1,0.3,0.3s-0.1,0.3-0.3,0.3h-1.3c-0.2,0-0.3,0.1-0.3,0.3v8.5
		c0,1.1-0.3,2-1,2.6c-0.6,0.6-1.5,0.9-2.5,0.9c-0.7,0-1.4-0.2-2-0.5c-0.6-0.3-1-0.7-1.4-1.2c0,0-0.1-0.1-0.1-0.2s0.1-0.1,0.2-0.2
		c0.1-0.1,0.3,0,0.4,0.1C6.1,56.3,6.5,56.7,7,56.9z"/>
	<path class="st2" d="M16.3,56.6c-0.9-0.9-1.3-2-1.3-3.4s0.4-2.5,1.3-3.4c0.9-0.9,2-1.3,3.4-1.3s2.5,0.4,3.4,1.3
		c0.9,0.9,1.3,2,1.3,3.4s-0.4,2.5-1.3,3.4c-0.9,0.9-2,1.3-3.4,1.3S17.2,57.4,16.3,56.6z M19.7,49c-1.2,0-2.2,0.4-3,1.1
		c-0.8,0.8-1.1,1.8-1.1,3c0,1.3,0.4,2.3,1.1,3s1.8,1.1,3,1.1s2.3-0.4,3-1.1c0.8-0.8,1.1-1.8,1.1-3c0-1.3-0.4-2.3-1.1-3
		C21.9,49.4,20.9,49,19.7,49z"/>
	<path class="st2" d="M25.8,48.7h1.9c0.2,0,0.3,0.1,0.3,0.3v5.3c0,1,0.3,1.8,0.8,2.3c0.6,0.5,1.3,0.8,2.3,0.8c1,0,1.9-0.4,2.8-1.2
		c0.4-0.4,0.7-0.8,1-1.2v-5.4c0-0.2-0.1-0.3-0.3-0.3h-1.3c-0.2,0-0.3-0.1-0.3-0.3c0-0.2,0.1-0.3,0.3-0.3h1.9c0.2,0,0.3,0.1,0.3,0.3
		v7.9c0,0.2,0.1,0.3,0.3,0.3h1.3c0.2,0,0.3,0.1,0.3,0.3c0,0.2-0.1,0.3-0.3,0.3h-1.9c-0.2,0-0.3-0.1-0.3-0.3v-1c0-0.1,0-0.2-0.1-0.3
		c-0.1,0-0.1,0-0.2,0.1c-1,1.1-2.2,1.6-3.4,1.6c-1.2,0-2.2-0.3-2.8-0.9c-0.7-0.6-1-1.5-1-2.7v-4.8c0-0.2-0.1-0.3-0.3-0.3h-1.3
		c-0.2,0-0.3-0.1-0.3-0.3C25.5,48.8,25.6,48.7,25.8,48.7z"/>
	<path class="st2" d="M46.3,56.4c0.2-0.1,0.4-0.3,0.5-0.4c0.1-0.1,0.2-0.1,0.3-0.1c0.1,0,0.1,0.1,0.2,0.2c0.1,0.1,0.1,0.2-0.1,0.3
		c-0.5,0.4-1,0.7-1.6,1c-0.6,0.3-1.4,0.4-2.3,0.4c-1.4,0-2.5-0.4-3.3-1.3s-1.2-2-1.2-3.4s0.4-2.5,1.2-3.4s1.9-1.3,3.3-1.3
		c1.3,0,2.4,0.4,3.3,1.2c0.8,0.8,1.3,1.7,1.3,2.9v0.3c0,0.4-0.2,0.5-0.6,0.5h-7.6c-0.2,0-0.3,0.1-0.3,0.3c0.1,1,0.5,1.9,1.1,2.6
		s1.6,1.1,2.8,1.1C44.5,57.3,45.5,57,46.3,56.4z M39.3,52.6c0,0.1,0.1,0.2,0.3,0.2h7.3c0.2,0,0.3-0.1,0.3-0.3c0-1-0.4-1.8-1.1-2.5
		c-0.8-0.7-1.7-1-2.8-1s-2.1,0.4-2.8,1.1C39.7,50.9,39.3,51.7,39.3,52.6z"/>
	<path class="st2" d="M49.6,57.4c0-0.1,0.1-0.2,0.2-0.4l7.1-7.5c0.1-0.1,0.1-0.1,0.1-0.2c0-0.1-0.1-0.1-0.3-0.1h-6.1
		c-0.2,0-0.3,0.1-0.3,0.3v1.7c0,0.2-0.1,0.3-0.3,0.3s-0.3-0.1-0.3-0.3v-2.2c0-0.2,0.1-0.3,0.3-0.3h7.8c0.2,0,0.3,0.1,0.3,0.3
		c0,0.1-0.1,0.2-0.2,0.4l-7.1,7.5c-0.1,0.1-0.1,0.1-0.1,0.2s0.1,0.1,0.3,0.1h6.1c0.2,0,0.3-0.1,0.3-0.3v-1.7c0-0.2,0.1-0.3,0.3-0.3
		c0.2,0,0.3,0.1,0.3,0.3v2.2c0,0.2-0.1,0.3-0.3,0.3h-7.8C49.7,57.7,49.6,57.6,49.6,57.4z"/>
	<path class="st2" d="M64.7,57.4c0-0.2,0.1-0.3,0.3-0.3h1.3c0.2,0,0.3-0.1,0.3-0.3v-11c0-0.2-0.1-0.3-0.3-0.3H65
		c-0.2,0-0.3-0.1-0.3-0.3s0.1-0.3,0.3-0.3h1.9c0.2,0,0.3,0.1,0.3,0.3v11.5c0,0.2,0.1,0.3,0.3,0.3h1.3c0.2,0,0.3,0.1,0.3,0.3
		c0,0.2-0.1,0.3-0.3,0.3H65C64.8,57.7,64.7,57.6,64.7,57.4z"/>
	<path class="st2" d="M74.6,48.5c1.1,0,1.9,0.3,2.6,0.9c0.7,0.6,1,1.3,1,2.1v5.4c0,0.2,0.1,0.3,0.3,0.3h1.3c0.2,0,0.3,0.1,0.3,0.3
		c0,0.2-0.1,0.3-0.3,0.3h-1.9c-0.2,0-0.3-0.1-0.3-0.3v-1c0-0.1,0-0.2-0.1-0.3c-0.1,0-0.1,0-0.2,0.1c-0.3,0.4-0.8,0.8-1.4,1.1
		c-0.6,0.3-1.3,0.5-1.9,0.5c-1.2,0-2.1-0.2-2.7-0.7s-0.9-1.1-0.9-1.9s0.4-1.4,1.1-2c0.7-0.5,1.6-0.8,2.8-0.8h3.2
		c0.2,0,0.3-0.1,0.3-0.3v-0.7c0-0.7-0.3-1.3-0.8-1.7c-0.6-0.5-1.3-0.7-2.1-0.7c-0.8,0-1.5,0.1-2,0.3c-0.5,0.2-0.9,0.4-1.1,0.5
		c-0.2,0.2-0.4,0.2-0.5,0s-0.1-0.3,0-0.4C72.1,48.9,73.2,48.5,74.6,48.5z M77.6,53.3c0-0.2-0.1-0.3-0.3-0.3h-3.2
		c-1.1,0-1.9,0.2-2.5,0.6c-0.5,0.4-0.8,0.9-0.8,1.6c0,0.6,0.2,1.1,0.7,1.5s1.2,0.6,2.2,0.6c1.2,0,2.3-0.6,3.3-1.8
		c0.2-0.2,0.3-0.4,0.5-0.7V53.3z"/>
	<path class="st2" d="M94.8,50.9c-1-1.3-2.3-1.9-3.7-1.9c-1,0-1.9,0.4-2.6,1.2c-0.7,0.8-1,1.8-1,3s0.4,2.2,1.1,3s1.7,1.1,2.9,1.1
		c1.2,0,2.2-0.3,3-0.9c0.2-0.1,0.4-0.3,0.5-0.4c0.1-0.1,0.2-0.1,0.3-0.1c0.1,0,0.1,0.1,0.2,0.2c0.1,0.1,0.1,0.1,0.1,0.2
		c0,0.1-0.1,0.1-0.2,0.2c-0.4,0.3-0.9,0.7-1.5,0.9c-0.6,0.3-1.4,0.4-2.3,0.4c-1.4,0-2.5-0.4-3.3-1.3c-0.8-0.9-1.2-2-1.2-3.4
		s0.4-2.5,1.2-3.4c0.8-0.9,1.8-1.3,3.1-1.3c1.2,0,2.3,0.4,3.3,1.3c0.2,0.2,0.3,0.1,0.3-0.2v-0.7c0-0.2,0.1-0.3,0.3-0.3
		s0.3,0.1,0.3,0.3v2.9c0,0.2-0.1,0.3-0.3,0.3s-0.3-0.1-0.3-0.3V50.9z"/>
	<path class="st2" d="M101.6,48.5c1.1,0,1.9,0.3,2.6,0.9c0.7,0.6,1,1.3,1,2.1v5.4c0,0.2,0.1,0.3,0.3,0.3h1.3c0.2,0,0.3,0.1,0.3,0.3
		c0,0.2-0.1,0.3-0.3,0.3h-1.9c-0.2,0-0.3-0.1-0.3-0.3v-1c0-0.1,0-0.2-0.1-0.3c-0.1,0-0.1,0-0.2,0.1c-0.3,0.4-0.8,0.8-1.4,1.1
		c-0.6,0.3-1.3,0.5-1.9,0.5c-1.2,0-2.1-0.2-2.7-0.7s-0.9-1.1-0.9-1.9s0.4-1.4,1.1-2c0.7-0.5,1.6-0.8,2.8-0.8h3.2
		c0.2,0,0.3-0.1,0.3-0.3v-0.7c0-0.7-0.3-1.3-0.8-1.7c-0.6-0.5-1.3-0.7-2.1-0.7c-0.8,0-1.5,0.1-2,0.3c-0.5,0.2-0.9,0.4-1.1,0.5
		c-0.2,0.2-0.4,0.2-0.5,0s-0.1-0.3,0-0.4C99,48.9,100.2,48.5,101.6,48.5z M104.6,53.3c0-0.2-0.1-0.3-0.3-0.3h-3.2
		c-1.1,0-1.9,0.2-2.5,0.6c-0.5,0.4-0.8,0.9-0.8,1.6c0,0.6,0.2,1.1,0.7,1.5s1.2,0.6,2.2,0.6c1.2,0,2.3-0.6,3.3-1.8
		c0.2-0.2,0.3-0.4,0.5-0.7V53.3z"/>
	<path class="st2" d="M115.5,49c-1.6,0-3,0.6-4,1.8c-0.3,0.3-0.6,0.7-0.8,1v5c0,0.2,0.1,0.3,0.3,0.3h1.5c0.2,0,0.3,0.1,0.3,0.3
		c0,0.2-0.1,0.3-0.3,0.3h-4c-0.2,0-0.3-0.1-0.3-0.3c0-0.2,0.1-0.3,0.3-0.3h1.3c0.2,0,0.3-0.1,0.3-0.3v-7.4c0-0.2-0.1-0.3-0.3-0.3
		h-1.3c-0.2,0-0.3-0.1-0.3-0.3c0-0.2,0.1-0.3,0.3-0.3h1.9c0.2,0,0.3,0.1,0.3,0.3v1.4c0,0.3,0.1,0.3,0.4,0c0.5-0.5,1.1-0.9,1.9-1.3
		c0.8-0.4,1.6-0.6,2.6-0.6h0.9c0.2,0,0.3,0.1,0.3,0.3V51c0,0.2-0.1,0.3-0.3,0.3s-0.3-0.1-0.3-0.3v-1.7c0-0.2-0.1-0.3-0.3-0.3H115.5z
		"/>
	<path class="st2" d="M124.5,56.4c0.1-0.1,0.2-0.1,0.3,0c0.1,0.1,0.2,0.2,0.2,0.2c0,0.1,0,0.1-0.1,0.2c-0.3,0.3-0.6,0.5-0.9,0.6
		c-0.8,0.3-1.3,0.4-1.4,0.4c-0.1,0-0.2,0-0.2,0c-0.9,0-1.6-0.3-2.1-0.8c-0.5-0.5-0.8-1.3-0.8-2.3v-5.2c0-0.2-0.1-0.3-0.3-0.3h-1.3
		c-0.2,0-0.3-0.1-0.3-0.3c0-0.2,0.1-0.3,0.3-0.3h1.3c0.2,0,0.3-0.1,0.3-0.3v-3.1c0-0.2,0.1-0.3,0.3-0.3c0.2,0,0.3,0.1,0.3,0.3v3.1
		c0,0.2,0.1,0.3,0.3,0.3h3.3c0.2,0,0.3,0.1,0.3,0.3c0,0.2-0.1,0.3-0.3,0.3h-3.3c-0.2,0-0.3,0.1-0.3,0.3v5.2c0,0.9,0.2,1.5,0.6,2
		c0.4,0.4,1,0.7,1.7,0.7C123.1,57.3,123.8,57,124.5,56.4z"/>
	<path class="st2" d="M133.6,56.4c0.2-0.1,0.4-0.3,0.5-0.4c0.1-0.1,0.2-0.1,0.3-0.1c0.1,0,0.1,0.1,0.2,0.2c0.1,0.1,0.1,0.2-0.1,0.3
		c-0.5,0.4-1,0.7-1.6,1c-0.6,0.3-1.4,0.4-2.3,0.4c-1.4,0-2.5-0.4-3.3-1.3c-0.8-0.9-1.2-2-1.2-3.4s0.4-2.5,1.2-3.4
		c0.8-0.9,1.9-1.3,3.3-1.3s2.4,0.4,3.3,1.2c0.8,0.8,1.3,1.7,1.3,2.9v0.3c0,0.4-0.2,0.5-0.6,0.5h-7.6c-0.2,0-0.3,0.1-0.3,0.3
		c0.1,1,0.5,1.9,1.1,2.6s1.6,1.1,2.8,1.1S132.8,57,133.6,56.4z M126.6,52.6c0,0.1,0.1,0.2,0.3,0.2h7.3c0.2,0,0.3-0.1,0.3-0.3
		c0-1-0.4-1.8-1.1-2.5c-0.8-0.7-1.7-1-2.8-1s-2.1,0.4-2.8,1.1S126.6,51.7,126.6,52.6z"/>
	<path class="st2" d="M149.3,49c-1.6,0-3,0.6-4,1.8c-0.3,0.3-0.6,0.7-0.8,1v5c0,0.2,0.1,0.3,0.3,0.3h1.5c0.2,0,0.3,0.1,0.3,0.3
		c0,0.2-0.1,0.3-0.3,0.3h-4c-0.2,0-0.3-0.1-0.3-0.3c0-0.2,0.1-0.3,0.3-0.3h1.3c0.2,0,0.3-0.1,0.3-0.3v-7.4c0-0.2-0.1-0.3-0.3-0.3
		h-1.3c-0.2,0-0.3-0.1-0.3-0.3c0-0.2,0.1-0.3,0.3-0.3h1.9c0.2,0,0.3,0.1,0.3,0.3v1.4c0,0.3,0.1,0.3,0.4,0c0.5-0.5,1.1-0.9,1.9-1.3
		c0.8-0.4,1.6-0.6,2.6-0.6h0.9c0.2,0,0.3,0.1,0.3,0.3V51c0,0.2-0.1,0.3-0.3,0.3c-0.2,0-0.3-0.1-0.3-0.3v-1.7c0-0.2-0.1-0.3-0.3-0.3
		H149.3z"/>
	<path class="st2" d="M153.4,56.6c-0.9-0.9-1.3-2-1.3-3.4s0.4-2.5,1.3-3.4c0.9-0.9,2-1.3,3.4-1.3c1.4,0,2.5,0.4,3.4,1.3
		s1.3,2,1.3,3.4s-0.4,2.5-1.3,3.4s-2,1.3-3.4,1.3C155.4,57.9,154.3,57.4,153.4,56.6z M156.8,49c-1.2,0-2.2,0.4-3,1.1
		c-0.8,0.8-1.1,1.8-1.1,3c0,1.3,0.4,2.3,1.1,3s1.8,1.1,3,1.1s2.3-0.4,3-1.1s1.1-1.8,1.1-3c0-1.3-0.4-2.3-1.1-3
		C159,49.4,158,49,156.8,49z"/>
	<path class="st2" d="M163.3,57.1h1.3c0.2,0,0.3-0.1,0.3-0.3v-7.4c0-0.2-0.1-0.3-0.3-0.3h-1.3c-0.2,0-0.3-0.1-0.3-0.3
		c0-0.2,0.1-0.3,0.3-0.3h1.9c0.2,0,0.3,0.1,0.3,0.3v1c0,0.3,0.1,0.4,0.3,0.2c1-1.1,2-1.6,3-1.6c0.7,0,1.4,0.2,1.9,0.6
		c0.6,0.4,0.9,1,1.2,1.7c0.3-0.4,0.6-0.8,0.9-1.2c0.8-0.8,1.7-1.2,2.6-1.2s1.7,0.3,2.3,0.9c0.6,0.6,0.9,1.5,0.9,2.7v4.8
		c0,0.2,0.1,0.3,0.3,0.3h1.3c0.2,0,0.3,0.1,0.3,0.3c0,0.2-0.1,0.3-0.3,0.3h-3.7c-0.2,0-0.3-0.1-0.3-0.3c0-0.2,0.1-0.3,0.3-0.3h1.2
		c0.2,0,0.3-0.1,0.3-0.3v-4.8c0-1-0.3-1.7-0.8-2.3c-0.5-0.5-1.2-0.8-1.9-0.8c-0.8,0-1.6,0.4-2.4,1.3c-0.4,0.4-0.7,0.8-0.9,1.3
		c0,0.3,0,0.4,0,0.5v4.8c0,0.2,0.1,0.3,0.3,0.3h1.2c0.2,0,0.3,0.1,0.3,0.3c0,0.2-0.1,0.3-0.3,0.3h-3.5c-0.2,0-0.3-0.1-0.3-0.3
		c0-0.2,0.1-0.3,0.3-0.3h1.2c0.2,0,0.3-0.1,0.3-0.3v-4.8c0-1-0.3-1.7-0.8-2.3c-0.5-0.5-1.2-0.8-1.9-0.8c-0.8,0-1.5,0.4-2.3,1.2
		c-0.3,0.3-0.6,0.8-0.9,1.2v5.4c0,0.2,0.1,0.3,0.3,0.3h1.2c0.2,0,0.3,0.1,0.3,0.3c0,0.2-0.1,0.3-0.3,0.3h-3.7
		c-0.2,0-0.3-0.1-0.3-0.3C163,57.2,163.1,57.1,163.3,57.1z"/>
	<path class="st2" d="M185.9,48.5c1.1,0,1.9,0.3,2.6,0.9c0.7,0.6,1,1.3,1,2.1v5.4c0,0.2,0.1,0.3,0.3,0.3h1.3c0.2,0,0.3,0.1,0.3,0.3
		c0,0.2-0.1,0.3-0.3,0.3h-1.9c-0.2,0-0.3-0.1-0.3-0.3v-1c0-0.1,0-0.2-0.1-0.3c-0.1,0-0.1,0-0.2,0.1c-0.3,0.4-0.8,0.8-1.4,1.1
		s-1.3,0.5-1.9,0.5c-1.2,0-2.1-0.2-2.7-0.7c-0.6-0.5-0.9-1.1-0.9-1.9s0.4-1.4,1.1-2c0.7-0.5,1.6-0.8,2.8-0.8h3.2
		c0.2,0,0.3-0.1,0.3-0.3v-0.7c0-0.7-0.3-1.3-0.8-1.7c-0.6-0.5-1.3-0.7-2.1-0.7s-1.5,0.1-2,0.3s-0.9,0.4-1.1,0.5
		c-0.2,0.2-0.4,0.2-0.5,0c-0.1-0.1-0.1-0.3,0-0.4C183.4,48.9,184.5,48.5,185.9,48.5z M188.9,53.3c0-0.2-0.1-0.3-0.3-0.3h-3.2
		c-1.1,0-1.9,0.2-2.5,0.6c-0.5,0.4-0.8,0.9-0.8,1.6c0,0.6,0.2,1.1,0.7,1.5c0.5,0.4,1.2,0.6,2.2,0.6c1.2,0,2.3-0.6,3.3-1.8
		c0.2-0.2,0.3-0.4,0.5-0.7V53.3z"/>
	<path class="st2" d="M192.8,57.1h1.3c0.2,0,0.3-0.1,0.3-0.3v-7.4c0-0.2-0.1-0.3-0.3-0.3h-1.3c-0.2,0-0.3-0.1-0.3-0.3
		c0-0.2,0.1-0.3,0.3-0.3h1.9c0.2,0,0.3,0.1,0.3,0.3v1c0,0.1,0,0.2,0.1,0.3c0.1,0,0.1,0,0.2-0.1c1-1.1,2.2-1.6,3.4-1.6
		c1.2,0,2.2,0.3,2.8,0.9s1,1.5,1,2.7v4.8c0,0.2,0.1,0.3,0.3,0.3h1.3c0.2,0,0.3,0.1,0.3,0.3c0,0.2-0.1,0.3-0.3,0.3h-3.7
		c-0.2,0-0.3-0.1-0.3-0.3c0-0.2,0.1-0.3,0.3-0.3h1.2c0.2,0,0.3-0.1,0.3-0.3v-4.8c0-1-0.3-1.8-0.8-2.3c-0.6-0.5-1.3-0.8-2.3-0.8
		s-1.9,0.4-2.8,1.2c-0.4,0.4-0.7,0.8-1,1.2v5.4c0,0.2,0.1,0.3,0.3,0.3h1.2c0.2,0,0.3,0.1,0.3,0.3c0,0.2-0.1,0.3-0.3,0.3h-3.7
		c-0.2,0-0.3-0.1-0.3-0.3C192.5,57.2,192.6,57.1,192.8,57.1z"/>
	<path class="st2" d="M211.6,56.4c0.1-0.1,0.2-0.1,0.3,0s0.2,0.2,0.2,0.2c0,0.1,0,0.1-0.1,0.2c-0.3,0.3-0.6,0.5-0.9,0.6
		c-0.8,0.3-1.3,0.4-1.4,0.4c-0.1,0-0.2,0-0.2,0c-0.9,0-1.6-0.3-2.1-0.8c-0.5-0.5-0.8-1.3-0.8-2.3v-5.2c0-0.2-0.1-0.3-0.3-0.3H205
		c-0.2,0-0.3-0.1-0.3-0.3c0-0.2,0.1-0.3,0.3-0.3h1.3c0.2,0,0.3-0.1,0.3-0.3v-3.1c0-0.2,0.1-0.3,0.3-0.3s0.3,0.1,0.3,0.3v3.1
		c0,0.2,0.1,0.3,0.3,0.3h3.3c0.2,0,0.3,0.1,0.3,0.3c0,0.2-0.1,0.3-0.3,0.3h-3.3c-0.2,0-0.3,0.1-0.3,0.3v5.2c0,0.9,0.2,1.5,0.6,2
		c0.4,0.4,1,0.7,1.7,0.7C210.3,57.3,211,57,211.6,56.4z"/>
	<path class="st2" d="M212.9,57.4c0-0.2,0.1-0.3,0.3-0.3h1.3c0.2,0,0.3-0.1,0.3-0.3v-7.4c0-0.2-0.1-0.3-0.3-0.3h-1.3
		c-0.2,0-0.3-0.1-0.3-0.3c0-0.2,0.1-0.3,0.3-0.3h1.9c0.2,0,0.3,0.1,0.3,0.3v7.9c0,0.2,0.1,0.3,0.3,0.3h1.3c0.2,0,0.3,0.1,0.3,0.3
		c0,0.2-0.1,0.3-0.3,0.3h-3.9C213,57.7,212.9,57.6,212.9,57.4z M214.5,47c-0.1-0.1-0.2-0.3-0.2-0.5c0-0.2,0.1-0.4,0.2-0.5
		s0.3-0.2,0.5-0.2c0.2,0,0.4,0.1,0.5,0.2c0.1,0.1,0.2,0.3,0.2,0.5c0,0.2-0.1,0.4-0.2,0.5c-0.1,0.1-0.3,0.2-0.5,0.2
		C214.8,47.2,214.6,47.2,214.5,47z"/>
	<path class="st2" d="M226.7,57.9c0-0.2-0.1-0.3-0.3-0.3h-2.6c-1.6,0-2.9-0.4-3.8-1.2c-0.9-0.8-1.4-1.9-1.4-3.3
		c0-1.4,0.4-2.6,1.2-3.4c0.8-0.8,1.8-1.3,3.1-1.3c0.8,0,1.5,0.2,2.1,0.5c0.6,0.3,1.1,0.7,1.4,1.1c0.1,0.1,0.2,0.1,0.2,0.1
		c0.1,0,0.1-0.1,0.1-0.3v-1c0-0.2,0.1-0.3,0.3-0.3s0.3,0.1,0.3,0.3v11.5c0,0.2,0.1,0.3,0.3,0.3h1.3c0.2,0,0.3,0.1,0.3,0.3
		s-0.1,0.3-0.3,0.3h-4c-0.2,0-0.3-0.1-0.3-0.3s0.1-0.3,0.3-0.3h1.5c0.2,0,0.3-0.1,0.3-0.3V57.9z M226.7,51.5c-0.2-0.4-0.6-0.8-1-1.2
		c-0.9-0.8-1.8-1.2-2.9-1.2s-1.9,0.4-2.6,1.1s-1,1.7-1,3s0.4,2.3,1.2,3s1.9,1,3.4,1h2.6c0.2,0,0.3-0.1,0.3-0.3V51.5z"/>
	<path class="st2" d="M229.8,48.7h1.9c0.2,0,0.3,0.1,0.3,0.3v5.3c0,1,0.3,1.8,0.8,2.3c0.6,0.5,1.3,0.8,2.3,0.8c1,0,1.9-0.4,2.8-1.2
		c0.4-0.4,0.7-0.8,1-1.2v-5.4c0-0.2-0.1-0.3-0.3-0.3h-1.3c-0.2,0-0.3-0.1-0.3-0.3c0-0.2,0.1-0.3,0.3-0.3h1.9c0.2,0,0.3,0.1,0.3,0.3
		v7.9c0,0.2,0.1,0.3,0.3,0.3h1.3c0.2,0,0.3,0.1,0.3,0.3c0,0.2-0.1,0.3-0.3,0.3h-1.9c-0.2,0-0.3-0.1-0.3-0.3v-1c0-0.1,0-0.2-0.1-0.3
		c-0.1,0-0.1,0-0.2,0.1c-1,1.1-2.2,1.6-3.4,1.6c-1.2,0-2.2-0.3-2.8-0.9s-1-1.5-1-2.7v-4.8c0-0.2-0.1-0.3-0.3-0.3h-1.3
		c-0.2,0-0.3-0.1-0.3-0.3C229.6,48.8,229.7,48.7,229.8,48.7z"/>
	<path class="st2" d="M250.3,56.4c0.2-0.1,0.4-0.3,0.5-0.4c0.1-0.1,0.2-0.1,0.3-0.1c0.1,0,0.1,0.1,0.2,0.2c0.1,0.1,0.1,0.2-0.1,0.3
		c-0.5,0.4-1,0.7-1.6,1c-0.6,0.3-1.4,0.4-2.3,0.4c-1.4,0-2.5-0.4-3.3-1.3c-0.8-0.9-1.2-2-1.2-3.4s0.4-2.5,1.2-3.4
		c0.8-0.9,1.9-1.3,3.3-1.3s2.4,0.4,3.3,1.2c0.8,0.8,1.3,1.7,1.3,2.9v0.3c0,0.4-0.2,0.5-0.6,0.5h-7.6c-0.2,0-0.3,0.1-0.3,0.3
		c0.1,1,0.5,1.9,1.1,2.6s1.6,1.1,2.8,1.1S249.5,57,250.3,56.4z M243.4,52.6c0,0.1,0.1,0.2,0.3,0.2h7.3c0.2,0,0.3-0.1,0.3-0.3
		c0-1-0.4-1.8-1.1-2.5c-0.8-0.7-1.7-1-2.8-1s-2.1,0.4-2.8,1.1S243.4,51.7,243.4,52.6z"/>
</g>
</svg>
